# xmcd
#
# Track frame offsets: 
#        150
#        23165
#        45764
#        60957
#        80326
#        100377
#
# Disc length: 1621 seconds
#
# Revision: 0
# Processed by: cddbd v1.5.2PL0 Copyright (c) Steve Scherf et al.
# Submitted via: ExactAudioCopyFreeDBPlugin 1.0
#
DISCID=37065306
DTITLE=Jason Lowe - Before We Chase the Sky...
DYEAR=2008
DGENRE=Blues
TTITLE0=How We Let It Be
TTITLE1=Faith
TTITLE2=Forever Never Lost
TTITLE3=Silent Morning
TTITLE4=Fading
TTITLE5=When The Calm Takes Flight
EXTD=
EXTT0=
EXTT1=
EXTT2=
EXTT3=
EXTT4=
EXTT5=
PLAYORDER=
